[Header]
FileType HTR
DataType HTRS
FileVersion 1
NumSegments 22
NumFrames 4
DataFrameRate 24
EulerRotationOrder ZYX
CalibrationUnits mm
RotationUnits Degrees
GlobalAxisofGravity Y
BoneLengthAxis Y
ScaleFactor 1.0
[SegmentNames&Hierarchy]
reference	GLOBAL
Hips	reference
Spine	Hips
Spine1	Spine
Neck	Spine1
Head	Neck
LeftShoulder	Spine1
LeftArm	LeftShoulder
LeftForeArm	LeftArm
LeftHand	LeftForeArm
RightShoulder	Spine1
RightArm	RightShoulder
RightForeArm	RightArm
RightHand	RightForeArm
LeftUpLeg	Hips
LeftLeg	LeftUpLeg
LeftFoot	LeftLeg
LeftToeBase	LeftFoot
RightUpLeg	Hips
RightLeg	RightUpLeg
RightFoot	RightLeg
RightToeBase	RightFoot
[BasePosition]
reference	0	0	0	0	0	0	1
Hips	0	0	0	0	0	0	1
Spine	0	0	0	0	-0	90	1
Spine1	0	0	0	0	0	0	1
Neck	0	0	0	-7.352430803	-7.352430803	90	1
Head	0	0	0	0	-0	90	1
LeftShoulder	0	0	0	0	0	0	1
LeftArm	0	0	0	0	0	0	1
LeftForeArm	0	0	0	0	0	0	1
LeftHand	0	0	0	0	0	0	1
RightShoulder	0	0	0	0	-0	180	1
RightArm	0	0	0	0	-0	180	1
RightForeArm	0	0	0	0	-0	180	1
RightHand	0	0	0	0	-0	180	1
LeftUpLeg	0	0	0	0	-0	-90	1
LeftLeg	0	0	0	0	-0	-90	1
LeftFoot	0	0	0	66.57150701	-66.57150701	-90	1
LeftToeBase	0	0	0	0	-90	0	1
RightUpLeg	0	0	0	0	-0	-90	1
RightLeg	0	0	0	0	-0	-90	1
RightFoot	0	0	0	66.57150701	-66.57150701	-90	1
RightToeBase	0	0	0	0	-90	0	1
[reference]
55	0	0	0	0	-0	0	1.0
56	0	0	0	0	-0	0	1.0
57	0	0	0	0	-0	0	1.0
58	0	0	0	0	-0	0	1.0
[Hips]
55	-0.002110000001	8.887809753	0.36375916	-128.2757263	-93.91915894	139.3560791	1.0
56	-0.1972129345	8.887809753	0.366476655	-147.4009094	-95.71098328	158.0918274	1.0
57	-0.3944925964	8.887809753	0.3691685498	-160.5137024	-97.98703766	170.675705	1.0
58	-0.5823841691	8.887809753	0.3719483316	-163.9170837	-99.15518188	173.4669189	1.0
[Spine]
55	0	0.7478299737	0	-11.42320919	-4.344614983	-89.7237854	1.0
56	0	0.7478299737	0	-11.79918861	-5.464210987	-90.10572815	1.0
57	0	0.7478299737	0	-12.31436443	-6.305623531	-90.60295868	1.0
58	0	0.7478299737	0	-12.86514759	-6.252476692	-90.83312988	1.0
[Spine1]
55	0	2.049309969	0	3.721903801	-1.365725517	-2.416003227	1.0
56	0	2.049309969	0	4.061002254	-1.728781104	-2.236796618	1.0
57	0	2.049309969	0	4.353491306	-1.977444172	-2.562745333	1.0
58	0	2.049309969	0	5.158724785	-1.932623148	-2.419974327	1.0
[Neck]
55	0	2.231709957	0	-2.209026575	0.4999705553	-86.38226318	1.0
56	0	2.231709957	0	0.2826146483	-0.3881815374	-85.78572083	1.0
57	0	2.231709957	0	1.927247763	-1.574470162	-85.43196106	1.0
58	0	2.231709957	0	2.595348597	-2.423688412	-85.5044632	1.0
[Head]
55	0	1.413589954	0.1823999882	-11.30490971	-6.81833744	-87.95103455	1.0
56	0	1.413589954	0.1823999882	-11.92258167	-7.561839104	-87.7735672	1.0
57	0	1.413589954	0.1823999882	-11.41518211	-8.669208527	-87.7435379	1.0
58	0	1.413589954	0.1823999882	-11.36485767	-9.496665001	-87.78713989	1.0
[LeftShoulder]
55	0.3649300039	1.825889945	-0.04271000251	-14.57433891	-12.53625679	3.257317543	1.0
56	0.3649300039	1.825889945	-0.04271000251	-13.91848087	-12.65745735	2.755830765	1.0
57	0.3649300039	1.825889945	-0.04271000251	-13.45775318	-12.69196796	2.530890226	1.0
58	0.3649300039	1.825889945	-0.04271000251	-12.84584522	-12.11797142	2.220787048	1.0
[LeftArm]
55	1.24003005	0	0	34.99271011	-15.92300224	-64.74124908	1.0
56	1.24003005	0	0	34.63760376	-13.76007462	-65.76168823	1.0
57	1.24003005	0	0	34.83362198	-11.07802677	-67.35019684	1.0
58	1.24003005	0	0	33.50488281	-8.461343765	-69.17602539	1.0
[LeftForeArm]
55	2.847419977	0	0	-29.12199593	-37.03862762	31.09331131	1.0
56	2.847419977	0	0	-27.67652893	-39.41264343	29.07654762	1.0
57	2.847419977	0	0	-25.68709755	-39.99830246	25.55896568	1.0
58	2.847419977	0	0	-21.90081978	-39.61586761	19.87124252	1.0
[LeftHand]
55	2.258270025	0	0	-18.95964241	-10.63371468	5.228443146	1.0
56	2.258270025	0	0	-17.53084183	-11.09854317	4.830188274	1.0
57	2.258270025	0	0	-16.44978523	-12.30608463	1.874845862	1.0
58	2.258270025	0	0	-14.67592144	-12.11356544	-0.02752621472	1.0
[RightShoulder]
55	-0.3646599948	1.825889945	-0.04271000251	-10.66666698	8.419151306	178.0489044	1.0
56	-0.3646599948	1.825889945	-0.04271000251	-9.791693687	7.542849064	178.7841187	1.0
57	-0.3646599948	1.825889945	-0.04271000251	-9.00610733	6.065959454	179.7456665	1.0
58	-0.3646599948	1.825889945	-0.04271000251	-8.056694984	5.189489365	179.9507294	1.0
[RightArm]
55	-1.24003005	0	0	35.65422821	12.57936668	-114.0763702	1.0
56	-1.24003005	0	0	34.58813095	10.28214264	-113.1180191	1.0
57	-1.24003005	0	0	33.40766907	6.927535534	-112.2407684	1.0
58	-1.24003005	0	0	30.64096069	3.237374067	-111.045929	1.0
[RightForeArm]
55	-2.847419977	0	0	-13.46289539	36.85372543	147.0014648	1.0
56	-2.847419977	0	0	-12.23391914	38.45207214	149.3893127	1.0
57	-2.847419977	0	0	-10.250844	40.00380325	152.7576447	1.0
58	-2.847419977	0	0	-6.122341156	40.94343185	158.0102386	1.0
[RightHand]
55	-2.258270025	0	0	-3.209694862	11.31372643	169.7553711	1.0
56	-2.258270025	0	0	-2.213270664	11.07242966	170.9137115	1.0
57	-2.258270025	0	0	-1.242148042	11.5740633	169.4424438	1.0
58	-2.258270025	0	0	1.344399691	12.49298	172.4258118	1.0
[LeftUpLeg]
55	0.9119900465	0	0	-0.1394813359	5.421049118	86.88868713	1.0
56	0.9119900465	0	0	0.6904915571	6.459766388	87.48812866	1.0
57	0.9119900465	0	0	2.310439587	6.956055641	87.73078156	1.0
58	0.9119900465	0	0	3.949273586	6.918727875	88.22306061	1.0
[LeftLeg]
55	0	-4.371409893	0	5.947425842	-0.4293435812	86.63468933	1.0
56	0	-4.371409893	0	7.916369438	-2.241738558	86.56523132	1.0
57	0	-4.371409893	0	8.223198891	-1.038000584	87.02924347	1.0
58	0	-4.371409893	0	8.474473	-0.6778519154	87.29827881	1.0
[LeftFoot]
55	0	-3.918009996	0	-119.8236618	107.337059	-76.4896698	1.0
56	0	-3.918009996	0	-125.0604935	104.6378326	-83.59803772	1.0
57	0	-3.918009996	0	-140.8134766	104.4867325	-101.5770111	1.0
58	0	-3.918009996	0	-147.9828796	104.1806488	-110.2608719	1.0
[LeftToeBase]
55	0	-0.5927900076	1.367989898	0	0	0	1.0
56	0	-0.5927900076	1.367989898	0	0	0	1.0
57	0	-0.5927900076	1.367989898	0	0	0	1.0
58	0	-0.5927900076	1.367989898	0	0	0	1.0
[RightUpLeg]
55	-0.9119900465	0	0	-14.28555107	-2.189002514	98.13678741	1.0
56	-0.9119900465	0	0	-12.00998497	-3.874392509	98.54317474	1.0
57	-0.9119900465	0	0	-9.622063637	-3.288051367	97.30515289	1.0
58	-0.9119900465	0	0	-7.815345287	-2.86980772	96.78672791	1.0
[RightLeg]
55	0	-4.371409893	0	0.3244685531	0.2884275019	92.35426331	1.0
56	0	-4.371409893	0	-0.5856713653	-0.2820513844	91.29511261	1.0
57	0	-4.371409893	0	-1.624937057	-2.224651575	91.87738037	1.0
58	0	-4.371409893	0	-1.407378197	-2.778657198	92.35742188	1.0
[RightFoot]
55	0	-3.918009996	0	62.84129715	70.44075012	91.37413788	1.0
56	0	-3.918009996	0	63.39413452	70.93362427	92.0763855	1.0
57	0	-3.918009996	0	57.79032516	71.26589203	87.49191284	1.0
58	0	-3.918009996	0	53.50045013	71.18840027	84.2918396	1.0
[RightToeBase]
55	0	-0.5927900076	1.367989898	0	0	0	1.0
56	0	-0.5927900076	1.367989898	0	0	0	1.0
57	0	-0.5927900076	1.367989898	0	0	0	1.0
58	0	-0.5927900076	1.367989898	0	0	0	1.0
[EndOfFile]
